<?xml version="1.0" encoding="UTF-8"?>
<svg xmlns="http://www.w3.org/2000/svg" width="1400" height="900" viewBox="0 0 1400 900" role="img" aria-labelledby="title desc">
  <title id="title">Charybdis exact generated layout</title>
  <desc id="desc">Two rotationally symmetric stone spirals cross dockable water and meet at a central objective eye.</desc>
  <rect width="1400" height="900" fill="#14191c"/>
  <polygon points="70.0,436.0 428.0,78.0 786.0,436.0 428.0,794.0" fill="#176b87" stroke="#8bc2ce" stroke-width="4"/>
  <g>
    <circle cx="213.2" cy="436.0" r="15.2" fill="#a49a7e" stroke="none" stroke-width="0"/>
    <circle cx="213.2" cy="421.7" r="15.2" fill="#a49a7e" stroke="none" stroke-width="0"/>
    <circle cx="220.4" cy="407.4" r="15.2" fill="#a49a7e" stroke="none" stroke-width="0"/>
    <circle cx="220.4" cy="393.0" r="15.2" fill="#a49a7e" stroke="none" stroke-width="0"/>
    <circle cx="227.5" cy="378.7" r="15.2" fill="#a49a7e" stroke="none" stroke-width="0"/>
    <circle cx="234.7" cy="364.4" r="15.2" fill="#a49a7e" stroke="none" stroke-width="0"/>
    <circle cx="238.3" cy="353.7" r="15.2" fill="#a49a7e" stroke="none" stroke-width="0"/>
    <circle cx="245.4" cy="339.3" r="15.2" fill="#a49a7e" stroke="none" stroke-width="0"/>
    <circle cx="256.2" cy="328.6" r="15.2" fill="#a49a7e" stroke="none" stroke-width="0"/>
    <circle cx="263.3" cy="314.3" r="15.2" fill="#a49a7e" stroke="none" stroke-width="0"/>
    <circle cx="274.1" cy="303.5" r="15.2" fill="#a49a7e" stroke="none" stroke-width="0"/>
    <circle cx="281.2" cy="296.4" r="15.2" fill="#a49a7e" stroke="none" stroke-width="0"/>
    <circle cx="295.5" cy="289.2" r="15.2" fill="#a49a7e" stroke="none" stroke-width="0"/>
    <circle cx="306.3" cy="278.5" r="15.2" fill="#a49a7e" stroke="none" stroke-width="0"/>
    <circle cx="317.0" cy="274.9" r="15.2" fill="#a49a7e" stroke="none" stroke-width="0"/>
    <circle cx="331.3" cy="267.7" r="15.2" fill="#a49a7e" stroke="none" stroke-width="0"/>
    <circle cx="345.7" cy="260.6" r="15.2" fill="#a49a7e" stroke="none" stroke-width="0"/>
    <circle cx="356.4" cy="257.0" r="15.2" fill="#a49a7e" stroke="none" stroke-width="0"/>
    <circle cx="367.1" cy="253.4" r="15.2" fill="#a49a7e" stroke="none" stroke-width="0"/>
    <circle cx="381.5" cy="253.4" r="15.2" fill="#a49a7e" stroke="none" stroke-width="0"/>
    <circle cx="395.8" cy="253.4" r="15.2" fill="#a49a7e" stroke="none" stroke-width="0"/>
    <circle cx="406.5" cy="249.8" r="15.2" fill="#a49a7e" stroke="none" stroke-width="0"/>
    <circle cx="420.8" cy="249.8" r="15.2" fill="#a49a7e" stroke="none" stroke-width="0"/>
    <circle cx="435.2" cy="249.8" r="15.2" fill="#a49a7e" stroke="none" stroke-width="0"/>
    <circle cx="445.9" cy="253.4" r="15.2" fill="#a49a7e" stroke="none" stroke-width="0"/>
    <circle cx="460.2" cy="260.6" r="15.2" fill="#a49a7e" stroke="none" stroke-width="0"/>
    <circle cx="474.5" cy="260.6" r="15.2" fill="#a49a7e" stroke="none" stroke-width="0"/>
    <circle cx="485.3" cy="264.2" r="15.2" fill="#a49a7e" stroke="none" stroke-width="0"/>
    <circle cx="492.4" cy="271.3" r="15.2" fill="#a49a7e" stroke="none" stroke-width="0"/>
    <circle cx="506.8" cy="278.5" r="15.2" fill="#a49a7e" stroke="none" stroke-width="0"/>
    <circle cx="513.9" cy="285.6" r="15.2" fill="#a49a7e" stroke="none" stroke-width="0"/>
    <circle cx="528.2" cy="292.8" r="15.2" fill="#a49a7e" stroke="none" stroke-width="0"/>
    <circle cx="535.4" cy="300.0" r="15.2" fill="#a49a7e" stroke="none" stroke-width="0"/>
    <circle cx="542.6" cy="307.1" r="15.2" fill="#a49a7e" stroke="none" stroke-width="0"/>
    <circle cx="549.7" cy="321.4" r="15.2" fill="#a49a7e" stroke="none" stroke-width="0"/>
    <circle cx="556.9" cy="328.6" r="15.2" fill="#a49a7e" stroke="none" stroke-width="0"/>
    <circle cx="560.5" cy="339.3" r="15.2" fill="#a49a7e" stroke="none" stroke-width="0"/>
    <circle cx="571.2" cy="350.1" r="15.2" fill="#a49a7e" stroke="none" stroke-width="0"/>
    <circle cx="574.8" cy="360.8" r="15.2" fill="#a49a7e" stroke="none" stroke-width="0"/>
    <circle cx="578.4" cy="371.6" r="15.2" fill="#a49a7e" stroke="none" stroke-width="0"/>
    <circle cx="581.9" cy="382.3" r="15.2" fill="#a49a7e" stroke="none" stroke-width="0"/>
    <circle cx="585.5" cy="393.0" r="15.2" fill="#a49a7e" stroke="none" stroke-width="0"/>
    <circle cx="581.9" cy="403.8" r="15.2" fill="#a49a7e" stroke="none" stroke-width="0"/>
    <circle cx="585.5" cy="414.5" r="15.2" fill="#a49a7e" stroke="none" stroke-width="0"/>
    <circle cx="581.9" cy="425.3" r="15.2" fill="#a49a7e" stroke="none" stroke-width="0"/>
    <circle cx="581.9" cy="439.6" r="15.2" fill="#a49a7e" stroke="none" stroke-width="0"/>
    <circle cx="581.9" cy="446.7" r="15.2" fill="#a49a7e" stroke="none" stroke-width="0"/>
    <circle cx="578.4" cy="457.5" r="15.2" fill="#a49a7e" stroke="none" stroke-width="0"/>
    <circle cx="574.8" cy="468.2" r="15.2" fill="#a49a7e" stroke="none" stroke-width="0"/>
    <circle cx="571.2" cy="479.0" r="15.2" fill="#a49a7e" stroke="none" stroke-width="0"/>
    <circle cx="567.6" cy="489.7" r="15.2" fill="#a49a7e" stroke="none" stroke-width="0"/>
    <circle cx="560.5" cy="496.9" r="15.2" fill="#a49a7e" stroke="none" stroke-width="0"/>
    <circle cx="556.9" cy="507.6" r="15.2" fill="#a49a7e" stroke="none" stroke-width="0"/>
    <circle cx="549.7" cy="514.8" r="15.2" fill="#a49a7e" stroke="none" stroke-width="0"/>
    <circle cx="542.6" cy="521.9" r="15.2" fill="#a49a7e" stroke="none" stroke-width="0"/>
    <circle cx="535.4" cy="529.1" r="15.2" fill="#a49a7e" stroke="none" stroke-width="0"/>
    <circle cx="528.2" cy="536.2" r="15.2" fill="#a49a7e" stroke="none" stroke-width="0"/>
    <circle cx="517.5" cy="539.8" r="15.2" fill="#a49a7e" stroke="none" stroke-width="0"/>
    <circle cx="510.3" cy="547.0" r="15.2" fill="#a49a7e" stroke="none" stroke-width="0"/>
    <circle cx="503.2" cy="547.0" r="15.2" fill="#a49a7e" stroke="none" stroke-width="0"/>
    <circle cx="496.0" cy="554.1" r="15.2" fill="#a49a7e" stroke="none" stroke-width="0"/>
    <circle cx="485.3" cy="557.7" r="15.2" fill="#a49a7e" stroke="none" stroke-width="0"/>
    <circle cx="478.1" cy="557.7" r="15.2" fill="#a49a7e" stroke="none" stroke-width="0"/>
    <circle cx="467.4" cy="561.3" r="15.2" fill="#a49a7e" stroke="none" stroke-width="0"/>
    <circle cx="460.2" cy="561.3" r="15.2" fill="#a49a7e" stroke="none" stroke-width="0"/>
    <circle cx="449.5" cy="564.9" r="15.2" fill="#a49a7e" stroke="none" stroke-width="0"/>
    <circle cx="438.7" cy="561.3" r="15.2" fill="#a49a7e" stroke="none" stroke-width="0"/>
    <circle cx="431.6" cy="561.3" r="15.2" fill="#a49a7e" stroke="none" stroke-width="0"/>
    <circle cx="420.8" cy="557.7" r="15.2" fill="#a49a7e" stroke="none" stroke-width="0"/>
    <circle cx="413.7" cy="557.7" r="15.2" fill="#a49a7e" stroke="none" stroke-width="0"/>
    <circle cx="402.9" cy="554.1" r="15.2" fill="#a49a7e" stroke="none" stroke-width="0"/>
    <circle cx="399.4" cy="550.6" r="15.2" fill="#a49a7e" stroke="none" stroke-width="0"/>
    <circle cx="388.6" cy="547.0" r="15.2" fill="#a49a7e" stroke="none" stroke-width="0"/>
    <circle cx="385.0" cy="543.4" r="15.2" fill="#a49a7e" stroke="none" stroke-width="0"/>
    <circle cx="374.3" cy="539.8" r="15.2" fill="#a49a7e" stroke="none" stroke-width="0"/>
    <circle cx="370.7" cy="536.2" r="15.2" fill="#a49a7e" stroke="none" stroke-width="0"/>
    <circle cx="363.6" cy="529.1" r="15.2" fill="#a49a7e" stroke="none" stroke-width="0"/>
    <circle cx="356.4" cy="521.9" r="15.2" fill="#a49a7e" stroke="none" stroke-width="0"/>
    <circle cx="352.8" cy="518.3" r="15.2" fill="#a49a7e" stroke="none" stroke-width="0"/>
    <circle cx="345.7" cy="511.2" r="15.2" fill="#a49a7e" stroke="none" stroke-width="0"/>
    <circle cx="345.7" cy="504.0" r="15.2" fill="#a49a7e" stroke="none" stroke-width="0"/>
    <circle cx="338.5" cy="496.9" r="15.2" fill="#a49a7e" stroke="none" stroke-width="0"/>
    <circle cx="338.5" cy="489.7" r="15.2" fill="#a49a7e" stroke="none" stroke-width="0"/>
    <circle cx="334.9" cy="486.1" r="15.2" fill="#a49a7e" stroke="none" stroke-width="0"/>
    <circle cx="331.3" cy="475.4" r="15.2" fill="#a49a7e" stroke="none" stroke-width="0"/>
    <circle cx="331.3" cy="468.2" r="15.2" fill="#a49a7e" stroke="none" stroke-width="0"/>
    <circle cx="331.3" cy="461.1" r="15.2" fill="#a49a7e" stroke="none" stroke-width="0"/>
    <circle cx="331.3" cy="453.9" r="15.2" fill="#a49a7e" stroke="none" stroke-width="0"/>
    <circle cx="331.3" cy="446.7" r="15.2" fill="#a49a7e" stroke="none" stroke-width="0"/>
    <circle cx="331.3" cy="439.6" r="15.2" fill="#a49a7e" stroke="none" stroke-width="0"/>
    <circle cx="334.9" cy="436.0" r="15.2" fill="#a49a7e" stroke="none" stroke-width="0"/>
    <circle cx="334.9" cy="428.8" r="15.2" fill="#a49a7e" stroke="none" stroke-width="0"/>
    <circle cx="334.9" cy="421.7" r="15.2" fill="#a49a7e" stroke="none" stroke-width="0"/>
    <circle cx="342.1" cy="414.5" r="15.2" fill="#a49a7e" stroke="none" stroke-width="0"/>
    <circle cx="342.1" cy="407.4" r="15.2" fill="#a49a7e" stroke="none" stroke-width="0"/>
    <circle cx="345.7" cy="403.8" r="15.2" fill="#a49a7e" stroke="none" stroke-width="0"/>
    <circle cx="349.2" cy="400.2" r="15.2" fill="#a49a7e" stroke="none" stroke-width="0"/>
    <circle cx="352.8" cy="396.6" r="15.2" fill="#a49a7e" stroke="none" stroke-width="0"/>
    <circle cx="360.0" cy="389.5" r="15.2" fill="#a49a7e" stroke="none" stroke-width="0"/>
    <circle cx="363.6" cy="385.9" r="15.2" fill="#a49a7e" stroke="none" stroke-width="0"/>
    <circle cx="367.1" cy="382.3" r="15.2" fill="#a49a7e" stroke="none" stroke-width="0"/>
    <circle cx="370.7" cy="378.7" r="15.2" fill="#a49a7e" stroke="none" stroke-width="0"/>
    <circle cx="377.9" cy="378.7" r="15.2" fill="#a49a7e" stroke="none" stroke-width="0"/>
    <circle cx="381.5" cy="375.1" r="15.2" fill="#a49a7e" stroke="none" stroke-width="0"/>
    <circle cx="385.0" cy="371.6" r="15.2" fill="#a49a7e" stroke="none" stroke-width="0"/>
    <circle cx="392.2" cy="371.6" r="15.2" fill="#a49a7e" stroke="none" stroke-width="0"/>
    <circle cx="395.8" cy="368.0" r="15.2" fill="#a49a7e" stroke="none" stroke-width="0"/>
    <circle cx="402.9" cy="368.0" r="15.2" fill="#a49a7e" stroke="none" stroke-width="0"/>
    <circle cx="410.1" cy="368.0" r="15.2" fill="#a49a7e" stroke="none" stroke-width="0"/>
    <circle cx="417.3" cy="368.0" r="15.2" fill="#a49a7e" stroke="none" stroke-width="0"/>
    <circle cx="420.8" cy="371.6" r="15.2" fill="#a49a7e" stroke="none" stroke-width="0"/>
    <circle cx="428.0" cy="371.6" r="15.2" fill="#a49a7e" stroke="none" stroke-width="0"/>
    <circle cx="431.6" cy="375.1" r="15.2" fill="#a49a7e" stroke="none" stroke-width="0"/>
    <circle cx="435.2" cy="371.6" r="15.2" fill="#a49a7e" stroke="none" stroke-width="0"/>
    <circle cx="438.7" cy="375.1" r="15.2" fill="#a49a7e" stroke="none" stroke-width="0"/>
    <circle cx="442.3" cy="378.7" r="15.2" fill="#a49a7e" stroke="none" stroke-width="0"/>
    <circle cx="445.9" cy="382.3" r="15.2" fill="#a49a7e" stroke="none" stroke-width="0"/>
    <circle cx="449.5" cy="385.9" r="15.2" fill="#a49a7e" stroke="none" stroke-width="0"/>
    <circle cx="456.6" cy="385.9" r="15.2" fill="#a49a7e" stroke="none" stroke-width="0"/>
    <circle cx="453.1" cy="389.5" r="15.2" fill="#a49a7e" stroke="none" stroke-width="0"/>
    <circle cx="456.6" cy="393.0" r="15.2" fill="#a49a7e" stroke="none" stroke-width="0"/>
    <circle cx="460.2" cy="396.6" r="15.2" fill="#a49a7e" stroke="none" stroke-width="0"/>
    <circle cx="463.8" cy="400.2" r="15.2" fill="#a49a7e" stroke="none" stroke-width="0"/>
    <circle cx="463.8" cy="407.4" r="15.2" fill="#a49a7e" stroke="none" stroke-width="0"/>
    <circle cx="467.4" cy="410.9" r="15.2" fill="#a49a7e" stroke="none" stroke-width="0"/>
    <circle cx="467.4" cy="418.1" r="15.2" fill="#a49a7e" stroke="none" stroke-width="0"/>
    <circle cx="642.8" cy="436.0" r="15.2" fill="#a49a7e" stroke="none" stroke-width="0"/>
    <circle cx="642.8" cy="450.3" r="15.2" fill="#a49a7e" stroke="none" stroke-width="0"/>
    <circle cx="635.6" cy="464.6" r="15.2" fill="#a49a7e" stroke="none" stroke-width="0"/>
    <circle cx="635.6" cy="479.0" r="15.2" fill="#a49a7e" stroke="none" stroke-width="0"/>
    <circle cx="628.5" cy="493.3" r="15.2" fill="#a49a7e" stroke="none" stroke-width="0"/>
    <circle cx="621.3" cy="507.6" r="15.2" fill="#a49a7e" stroke="none" stroke-width="0"/>
    <circle cx="617.7" cy="518.3" r="15.2" fill="#a49a7e" stroke="none" stroke-width="0"/>
    <circle cx="610.6" cy="532.7" r="15.2" fill="#a49a7e" stroke="none" stroke-width="0"/>
    <circle cx="599.8" cy="543.4" r="15.2" fill="#a49a7e" stroke="none" stroke-width="0"/>
    <circle cx="592.7" cy="557.7" r="15.2" fill="#a49a7e" stroke="none" stroke-width="0"/>
    <circle cx="581.9" cy="568.5" r="15.2" fill="#a49a7e" stroke="none" stroke-width="0"/>
    <circle cx="574.8" cy="575.6" r="15.2" fill="#a49a7e" stroke="none" stroke-width="0"/>
    <circle cx="560.5" cy="582.8" r="15.2" fill="#a49a7e" stroke="none" stroke-width="0"/>
    <circle cx="549.7" cy="593.5" r="15.2" fill="#a49a7e" stroke="none" stroke-width="0"/>
    <circle cx="539.0" cy="597.1" r="15.2" fill="#a49a7e" stroke="none" stroke-width="0"/>
    <circle cx="524.7" cy="604.3" r="15.2" fill="#a49a7e" stroke="none" stroke-width="0"/>
    <circle cx="510.3" cy="611.4" r="15.2" fill="#a49a7e" stroke="none" stroke-width="0"/>
    <circle cx="499.6" cy="615.0" r="15.2" fill="#a49a7e" stroke="none" stroke-width="0"/>
    <circle cx="488.9" cy="618.6" r="15.2" fill="#a49a7e" stroke="none" stroke-width="0"/>
    <circle cx="474.5" cy="618.6" r="15.2" fill="#a49a7e" stroke="none" stroke-width="0"/>
    <circle cx="460.2" cy="618.6" r="15.2" fill="#a49a7e" stroke="none" stroke-width="0"/>
    <circle cx="449.5" cy="622.2" r="15.2" fill="#a49a7e" stroke="none" stroke-width="0"/>
    <circle cx="435.2" cy="622.2" r="15.2" fill="#a49a7e" stroke="none" stroke-width="0"/>
    <circle cx="420.8" cy="622.2" r="15.2" fill="#a49a7e" stroke="none" stroke-width="0"/>
    <circle cx="410.1" cy="618.6" r="15.2" fill="#a49a7e" stroke="none" stroke-width="0"/>
    <circle cx="395.8" cy="611.4" r="15.2" fill="#a49a7e" stroke="none" stroke-width="0"/>
    <circle cx="381.5" cy="611.4" r="15.2" fill="#a49a7e" stroke="none" stroke-width="0"/>
    <circle cx="370.7" cy="607.8" r="15.2" fill="#a49a7e" stroke="none" stroke-width="0"/>
    <circle cx="363.6" cy="600.7" r="15.2" fill="#a49a7e" stroke="none" stroke-width="0"/>
    <circle cx="349.2" cy="593.5" r="15.2" fill="#a49a7e" stroke="none" stroke-width="0"/>
    <circle cx="342.1" cy="586.4" r="15.2" fill="#a49a7e" stroke="none" stroke-width="0"/>
    <circle cx="327.8" cy="579.2" r="15.2" fill="#a49a7e" stroke="none" stroke-width="0"/>
    <circle cx="320.6" cy="572.0" r="15.2" fill="#a49a7e" stroke="none" stroke-width="0"/>
    <circle cx="313.4" cy="564.9" r="15.2" fill="#a49a7e" stroke="none" stroke-width="0"/>
    <circle cx="306.3" cy="550.6" r="15.2" fill="#a49a7e" stroke="none" stroke-width="0"/>
    <circle cx="299.1" cy="543.4" r="15.2" fill="#a49a7e" stroke="none" stroke-width="0"/>
    <circle cx="295.5" cy="532.7" r="15.2" fill="#a49a7e" stroke="none" stroke-width="0"/>
    <circle cx="284.8" cy="521.9" r="15.2" fill="#a49a7e" stroke="none" stroke-width="0"/>
    <circle cx="281.2" cy="511.2" r="15.2" fill="#a49a7e" stroke="none" stroke-width="0"/>
    <circle cx="277.6" cy="500.4" r="15.2" fill="#a49a7e" stroke="none" stroke-width="0"/>
    <circle cx="274.1" cy="489.7" r="15.2" fill="#a49a7e" stroke="none" stroke-width="0"/>
    <circle cx="270.5" cy="479.0" r="15.2" fill="#a49a7e" stroke="none" stroke-width="0"/>
    <circle cx="274.1" cy="468.2" r="15.2" fill="#a49a7e" stroke="none" stroke-width="0"/>
    <circle cx="270.5" cy="457.5" r="15.2" fill="#a49a7e" stroke="none" stroke-width="0"/>
    <circle cx="274.1" cy="446.7" r="15.2" fill="#a49a7e" stroke="none" stroke-width="0"/>
    <circle cx="274.1" cy="432.4" r="15.2" fill="#a49a7e" stroke="none" stroke-width="0"/>
    <circle cx="274.1" cy="425.3" r="15.2" fill="#a49a7e" stroke="none" stroke-width="0"/>
    <circle cx="277.6" cy="414.5" r="15.2" fill="#a49a7e" stroke="none" stroke-width="0"/>
    <circle cx="281.2" cy="403.8" r="15.2" fill="#a49a7e" stroke="none" stroke-width="0"/>
    <circle cx="284.8" cy="393.0" r="15.2" fill="#a49a7e" stroke="none" stroke-width="0"/>
    <circle cx="288.4" cy="382.3" r="15.2" fill="#a49a7e" stroke="none" stroke-width="0"/>
    <circle cx="295.5" cy="375.1" r="15.2" fill="#a49a7e" stroke="none" stroke-width="0"/>
    <circle cx="299.1" cy="364.4" r="15.2" fill="#a49a7e" stroke="none" stroke-width="0"/>
    <circle cx="306.3" cy="357.2" r="15.2" fill="#a49a7e" stroke="none" stroke-width="0"/>
    <circle cx="313.4" cy="350.1" r="15.2" fill="#a49a7e" stroke="none" stroke-width="0"/>
    <circle cx="320.6" cy="342.9" r="15.2" fill="#a49a7e" stroke="none" stroke-width="0"/>
    <circle cx="327.8" cy="335.8" r="15.2" fill="#a49a7e" stroke="none" stroke-width="0"/>
    <circle cx="338.5" cy="332.2" r="15.2" fill="#a49a7e" stroke="none" stroke-width="0"/>
    <circle cx="345.7" cy="325.0" r="15.2" fill="#a49a7e" stroke="none" stroke-width="0"/>
    <circle cx="352.8" cy="325.0" r="15.2" fill="#a49a7e" stroke="none" stroke-width="0"/>
    <circle cx="360.0" cy="317.9" r="15.2" fill="#a49a7e" stroke="none" stroke-width="0"/>
    <circle cx="370.7" cy="314.3" r="15.2" fill="#a49a7e" stroke="none" stroke-width="0"/>
    <circle cx="377.9" cy="314.3" r="15.2" fill="#a49a7e" stroke="none" stroke-width="0"/>
    <circle cx="388.6" cy="310.7" r="15.2" fill="#a49a7e" stroke="none" stroke-width="0"/>
    <circle cx="395.8" cy="310.7" r="15.2" fill="#a49a7e" stroke="none" stroke-width="0"/>
    <circle cx="406.5" cy="307.1" r="15.2" fill="#a49a7e" stroke="none" stroke-width="0"/>
    <circle cx="417.3" cy="310.7" r="15.2" fill="#a49a7e" stroke="none" stroke-width="0"/>
    <circle cx="424.4" cy="310.7" r="15.2" fill="#a49a7e" stroke="none" stroke-width="0"/>
    <circle cx="435.2" cy="314.3" r="15.2" fill="#a49a7e" stroke="none" stroke-width="0"/>
    <circle cx="442.3" cy="314.3" r="15.2" fill="#a49a7e" stroke="none" stroke-width="0"/>
    <circle cx="453.1" cy="317.9" r="15.2" fill="#a49a7e" stroke="none" stroke-width="0"/>
    <circle cx="456.6" cy="321.4" r="15.2" fill="#a49a7e" stroke="none" stroke-width="0"/>
    <circle cx="467.4" cy="325.0" r="15.2" fill="#a49a7e" stroke="none" stroke-width="0"/>
    <circle cx="471.0" cy="328.6" r="15.2" fill="#a49a7e" stroke="none" stroke-width="0"/>
    <circle cx="481.7" cy="332.2" r="15.2" fill="#a49a7e" stroke="none" stroke-width="0"/>
    <circle cx="485.3" cy="335.8" r="15.2" fill="#a49a7e" stroke="none" stroke-width="0"/>
    <circle cx="492.4" cy="342.9" r="15.2" fill="#a49a7e" stroke="none" stroke-width="0"/>
    <circle cx="499.6" cy="350.1" r="15.2" fill="#a49a7e" stroke="none" stroke-width="0"/>
    <circle cx="503.2" cy="353.7" r="15.2" fill="#a49a7e" stroke="none" stroke-width="0"/>
    <circle cx="510.3" cy="360.8" r="15.2" fill="#a49a7e" stroke="none" stroke-width="0"/>
    <circle cx="510.3" cy="368.0" r="15.2" fill="#a49a7e" stroke="none" stroke-width="0"/>
    <circle cx="517.5" cy="375.1" r="15.2" fill="#a49a7e" stroke="none" stroke-width="0"/>
    <circle cx="517.5" cy="382.3" r="15.2" fill="#a49a7e" stroke="none" stroke-width="0"/>
    <circle cx="521.1" cy="385.9" r="15.2" fill="#a49a7e" stroke="none" stroke-width="0"/>
    <circle cx="524.7" cy="396.6" r="15.2" fill="#a49a7e" stroke="none" stroke-width="0"/>
    <circle cx="524.7" cy="403.8" r="15.2" fill="#a49a7e" stroke="none" stroke-width="0"/>
    <circle cx="524.7" cy="410.9" r="15.2" fill="#a49a7e" stroke="none" stroke-width="0"/>
    <circle cx="524.7" cy="418.1" r="15.2" fill="#a49a7e" stroke="none" stroke-width="0"/>
    <circle cx="524.7" cy="425.3" r="15.2" fill="#a49a7e" stroke="none" stroke-width="0"/>
    <circle cx="524.7" cy="432.4" r="15.2" fill="#a49a7e" stroke="none" stroke-width="0"/>
    <circle cx="521.1" cy="436.0" r="15.2" fill="#a49a7e" stroke="none" stroke-width="0"/>
    <circle cx="521.1" cy="443.2" r="15.2" fill="#a49a7e" stroke="none" stroke-width="0"/>
    <circle cx="521.1" cy="450.3" r="15.2" fill="#a49a7e" stroke="none" stroke-width="0"/>
    <circle cx="513.9" cy="457.5" r="15.2" fill="#a49a7e" stroke="none" stroke-width="0"/>
    <circle cx="513.9" cy="464.6" r="15.2" fill="#a49a7e" stroke="none" stroke-width="0"/>
    <circle cx="510.3" cy="468.2" r="15.2" fill="#a49a7e" stroke="none" stroke-width="0"/>
    <circle cx="506.8" cy="471.8" r="15.2" fill="#a49a7e" stroke="none" stroke-width="0"/>
    <circle cx="503.2" cy="475.4" r="15.2" fill="#a49a7e" stroke="none" stroke-width="0"/>
    <circle cx="496.0" cy="482.5" r="15.2" fill="#a49a7e" stroke="none" stroke-width="0"/>
    <circle cx="492.4" cy="486.1" r="15.2" fill="#a49a7e" stroke="none" stroke-width="0"/>
    <circle cx="488.9" cy="489.7" r="15.2" fill="#a49a7e" stroke="none" stroke-width="0"/>
    <circle cx="485.3" cy="493.3" r="15.2" fill="#a49a7e" stroke="none" stroke-width="0"/>
    <circle cx="478.1" cy="493.3" r="15.2" fill="#a49a7e" stroke="none" stroke-width="0"/>
    <circle cx="474.5" cy="496.9" r="15.2" fill="#a49a7e" stroke="none" stroke-width="0"/>
    <circle cx="471.0" cy="500.4" r="15.2" fill="#a49a7e" stroke="none" stroke-width="0"/>
    <circle cx="463.8" cy="500.4" r="15.2" fill="#a49a7e" stroke="none" stroke-width="0"/>
    <circle cx="460.2" cy="504.0" r="15.2" fill="#a49a7e" stroke="none" stroke-width="0"/>
    <circle cx="453.1" cy="504.0" r="15.2" fill="#a49a7e" stroke="none" stroke-width="0"/>
    <circle cx="445.9" cy="504.0" r="15.2" fill="#a49a7e" stroke="none" stroke-width="0"/>
    <circle cx="438.7" cy="504.0" r="15.2" fill="#a49a7e" stroke="none" stroke-width="0"/>
    <circle cx="435.2" cy="500.4" r="15.2" fill="#a49a7e" stroke="none" stroke-width="0"/>
    <circle cx="428.0" cy="500.4" r="15.2" fill="#a49a7e" stroke="none" stroke-width="0"/>
    <circle cx="424.4" cy="496.9" r="15.2" fill="#a49a7e" stroke="none" stroke-width="0"/>
    <circle cx="420.8" cy="500.4" r="15.2" fill="#a49a7e" stroke="none" stroke-width="0"/>
    <circle cx="417.3" cy="496.9" r="15.2" fill="#a49a7e" stroke="none" stroke-width="0"/>
    <circle cx="413.7" cy="493.3" r="15.2" fill="#a49a7e" stroke="none" stroke-width="0"/>
    <circle cx="410.1" cy="489.7" r="15.2" fill="#a49a7e" stroke="none" stroke-width="0"/>
    <circle cx="406.5" cy="486.1" r="15.2" fill="#a49a7e" stroke="none" stroke-width="0"/>
    <circle cx="399.4" cy="486.1" r="15.2" fill="#a49a7e" stroke="none" stroke-width="0"/>
    <circle cx="402.9" cy="482.5" r="15.2" fill="#a49a7e" stroke="none" stroke-width="0"/>
    <circle cx="399.4" cy="479.0" r="15.2" fill="#a49a7e" stroke="none" stroke-width="0"/>
    <circle cx="395.8" cy="475.4" r="15.2" fill="#a49a7e" stroke="none" stroke-width="0"/>
    <circle cx="392.2" cy="471.8" r="15.2" fill="#a49a7e" stroke="none" stroke-width="0"/>
    <circle cx="392.2" cy="464.6" r="15.2" fill="#a49a7e" stroke="none" stroke-width="0"/>
    <circle cx="388.6" cy="461.1" r="15.2" fill="#a49a7e" stroke="none" stroke-width="0"/>
    <circle cx="388.6" cy="453.9" r="15.2" fill="#a49a7e" stroke="none" stroke-width="0"/>
    <circle cx="170.2" cy="436.0" r="68.9" fill="#7c9b55" stroke="#d9e6aa" stroke-width="3"/>
    <circle cx="170.2" cy="436.0" r="11.1" fill="#3478c4" stroke="#ffffff" stroke-width="2"/>
    <circle cx="685.8" cy="436.0" r="68.9" fill="#7c9b55" stroke="#d9e6aa" stroke-width="3"/>
    <circle cx="685.8" cy="436.0" r="11.1" fill="#d34b3f" stroke="#ffffff" stroke-width="2"/>
    <circle cx="510.3" cy="282.1" r="26.3" fill="#d3a53c" stroke="#eee8d5" stroke-width="2"/>
    <circle cx="345.7" cy="589.9" r="26.3" fill="#d3a53c" stroke="#eee8d5" stroke-width="2"/>
    <circle cx="438.7" cy="561.3" r="26.3" fill="#78a867" stroke="#eee8d5" stroke-width="2"/>
    <circle cx="417.3" cy="310.7" r="26.3" fill="#78a867" stroke="#eee8d5" stroke-width="2"/>
    <circle cx="370.7" cy="378.7" r="21.8" fill="#a58ac6" stroke="#eee8d5" stroke-width="2"/>
    <circle cx="485.3" cy="493.3" r="21.8" fill="#a58ac6" stroke="#eee8d5" stroke-width="2"/>
    <circle cx="428.0" cy="436.0" r="37.5" fill="#d8c353" stroke="#fff4bd" stroke-width="4"/>
    <circle cx="528.2" cy="550.6" r="7.3" fill="#9fd2c9" stroke="#eaf6e9" stroke-width="1"/>
    <circle cx="535.4" cy="557.7" r="7.3" fill="#9fd2c9" stroke="#eaf6e9" stroke-width="1"/>
    <circle cx="542.6" cy="564.9" r="7.3" fill="#9fd2c9" stroke="#eaf6e9" stroke-width="1"/>
    <circle cx="542.6" cy="572.0" r="7.3" fill="#9fd2c9" stroke="#eaf6e9" stroke-width="1"/>
    <circle cx="546.1" cy="575.6" r="7.3" fill="#9fd2c9" stroke="#eaf6e9" stroke-width="1"/>
    <circle cx="327.8" cy="321.4" r="7.3" fill="#9fd2c9" stroke="#eaf6e9" stroke-width="1"/>
    <circle cx="320.6" cy="314.3" r="7.3" fill="#9fd2c9" stroke="#eaf6e9" stroke-width="1"/>
    <circle cx="313.4" cy="307.1" r="7.3" fill="#9fd2c9" stroke="#eaf6e9" stroke-width="1"/>
    <circle cx="313.4" cy="300.0" r="7.3" fill="#9fd2c9" stroke="#eaf6e9" stroke-width="1"/>
    <circle cx="309.9" cy="296.4" r="7.3" fill="#9fd2c9" stroke="#eaf6e9" stroke-width="1"/>
    <circle cx="338.5" cy="525.5" r="7.3" fill="#285f43" stroke="#eaf6e9" stroke-width="1"/>
    <circle cx="334.9" cy="529.1" r="7.3" fill="#285f43" stroke="#eaf6e9" stroke-width="1"/>
    <circle cx="327.8" cy="536.2" r="7.3" fill="#285f43" stroke="#eaf6e9" stroke-width="1"/>
    <circle cx="320.6" cy="543.4" r="7.3" fill="#285f43" stroke="#eaf6e9" stroke-width="1"/>
    <circle cx="317.0" cy="547.0" r="7.3" fill="#285f43" stroke="#eaf6e9" stroke-width="1"/>
    <circle cx="517.5" cy="346.5" r="7.3" fill="#285f43" stroke="#eaf6e9" stroke-width="1"/>
    <circle cx="521.1" cy="342.9" r="7.3" fill="#285f43" stroke="#eaf6e9" stroke-width="1"/>
    <circle cx="528.2" cy="335.8" r="7.3" fill="#285f43" stroke="#eaf6e9" stroke-width="1"/>
    <circle cx="535.4" cy="328.6" r="7.3" fill="#285f43" stroke="#eaf6e9" stroke-width="1"/>
    <circle cx="539.0" cy="325.0" r="7.3" fill="#285f43" stroke="#eaf6e9" stroke-width="1"/>
    <circle cx="453.1" cy="368.0" r="7.3" fill="#9fd2c9" stroke="#eaf6e9" stroke-width="1"/>
    <circle cx="456.6" cy="357.2" r="7.3" fill="#9fd2c9" stroke="#eaf6e9" stroke-width="1"/>
    <circle cx="456.6" cy="350.1" r="7.3" fill="#9fd2c9" stroke="#eaf6e9" stroke-width="1"/>
    <circle cx="463.8" cy="342.9" r="7.3" fill="#9fd2c9" stroke="#eaf6e9" stroke-width="1"/>
    <circle cx="463.8" cy="335.8" r="7.3" fill="#9fd2c9" stroke="#eaf6e9" stroke-width="1"/>
    <circle cx="402.9" cy="504.0" r="7.3" fill="#9fd2c9" stroke="#eaf6e9" stroke-width="1"/>
    <circle cx="399.4" cy="514.8" r="7.3" fill="#9fd2c9" stroke="#eaf6e9" stroke-width="1"/>
    <circle cx="399.4" cy="521.9" r="7.3" fill="#9fd2c9" stroke="#eaf6e9" stroke-width="1"/>
    <circle cx="392.2" cy="529.1" r="7.3" fill="#9fd2c9" stroke="#eaf6e9" stroke-width="1"/>
    <circle cx="392.2" cy="536.2" r="7.3" fill="#9fd2c9" stroke="#eaf6e9" stroke-width="1"/>
  </g>
  <g fill="#f2eee5" font-family="Arial, Helvetica, sans-serif">
    <text x="850" y="105" font-size="52" font-weight="700">CHARYBDIS</text>
    <text x="852" y="148" font-size="22" fill="#abc4cb">Exact generated geometry, middle-lock seed</text>
    <line x1="850" y1="180" x2="1325" y2="180" stroke="#46535a" stroke-width="2"/>
    <text x="850" y="232" font-size="24" font-weight="700">THE FIELD</text>
    <text x="850" y="274" font-size="20">Two complete spiral land routes</text>
    <text x="850" y="307" font-size="20">Dockable channels between every coil</text>
    <text x="850" y="340" font-size="20">Transport ship at each starting island</text>
    <text x="850" y="373" font-size="20">Five relics: one per shrine, three central</text>
    <text x="850" y="426" font-size="24" font-weight="700">CHANGING TIDE</text>
    <circle cx="865" cy="467" r="13" fill="#9fd2c9" stroke="#eaf6e9" stroke-width="2"/>
    <text x="894" y="474" font-size="20">Open shallow shortcut</text>
    <circle cx="865" cy="510" r="13" fill="#285f43" stroke="#eaf6e9" stroke-width="2"/>
    <text x="894" y="517" font-size="20">Mangrove lock; chop to open</text>
    <text x="850" y="559" font-size="18" fill="#abc4cb">Exactly one of the three mirrored pairs locks.</text>
    <text x="850" y="604" font-size="24" font-weight="700">OBJECTIVE PADS</text>
    <circle cx="865" cy="646" r="13" fill="#d3a53c"/><text x="894" y="653" font-size="20">Salvage: gold and stone</text>
    <circle cx="865" cy="689" r="13" fill="#78a867"/><text x="894" y="696" font-size="20">Provision: berries and deer</text>
    <circle cx="865" cy="732" r="13" fill="#a58ac6"/><text x="894" y="739" font-size="20">Shrine: gold and relic</text>
    <circle cx="865" cy="775" r="13" fill="#d8c353"/><text x="894" y="782" font-size="20">Eye: gold, stone, three relics</text>
    <text x="850" y="842" font-size="17" fill="#79898f">120 x 120 | 1v1 | flat elevation | 180-degree symmetry</text>
  </g>
</svg>
